<svg version="1.1" id="Layer_1" xmlns="http://www.w3.org/2000/svg" xmlns:xlink="http://www.w3.org/1999/xlink" x="0px" y="0px"
	 width="100%" viewBox="0 0 840 314" enable-background="new 0 0 840 314" xml:space="preserve">
<path fill="#131313" opacity="1.000000" stroke="none" 
	d="
M210.000000,315.000000 
	C140.388474,315.000000 70.776939,315.000000 1.082705,315.000000 
	C1.082705,210.333374 1.082705,105.666695 1.084195,1.000011 
	C10.744686,1.000000 20.403685,1.000000 30.532619,1.413473 
	C33.824677,11.522081 36.129658,21.404854 39.566460,30.876965 
	C49.641518,58.644680 60.112686,86.269600 70.603096,113.884201 
	C71.609390,116.533127 73.833992,118.719231 75.382233,121.494370 
	C73.181923,129.245773 71.092415,136.623016 68.802292,144.313873 
	C67.164619,154.277695 65.058052,163.887268 64.469589,173.588913 
	C63.817287,184.342957 64.952385,195.110031 69.936905,205.421036 
	C73.286133,210.940384 76.581619,216.097549 80.035492,221.539703 
	C83.803886,224.827698 87.413902,227.830688 91.282982,231.065552 
	C95.365219,233.167709 99.188377,235.037979 103.322815,237.095337 
	C106.759117,238.162094 109.884155,239.041779 113.356277,240.078979 
	C116.802895,240.822403 119.902412,241.408325 123.329666,242.176834 
	C127.411095,243.303207 131.164780,244.246979 135.167694,245.430405 
	C138.913635,247.183273 142.410339,248.696487 146.101257,250.477463 
	C150.648239,254.480225 155.001022,258.215240 159.342361,261.940430 
	C162.483368,259.153412 165.656357,256.338013 168.990768,253.850311 
	C171.036880,256.691315 173.019104,259.138000 174.790176,261.729004 
	C185.256653,277.041107 195.703751,292.366760 206.075668,307.742950 
	C207.606186,310.011932 208.702682,312.573700 210.000000,315.000000 
z"/>
<path fill="#1B1B1B" opacity="1.000000" stroke="none" 
	d="
M135.000000,1.000000 
	C178.354233,1.000000 221.708450,1.000000 265.553894,1.385409 
	C267.453003,6.023231 268.537476,10.417225 270.326050,14.503008 
	C277.253784,30.328527 284.168701,46.167778 291.542877,61.787361 
	C298.489166,76.500671 305.945160,90.975975 313.383484,105.449829 
	C314.030853,106.709465 316.218750,107.177391 317.759277,108.476715 
	C317.857117,150.196671 317.887726,191.452972 317.915741,232.709290 
	C317.921722,241.509537 317.917450,241.509537 327.349182,241.196289 
	C328.701324,241.423019 329.683838,241.566833 330.668945,241.587158 
	C337.765259,241.733551 337.752228,241.725540 337.780975,234.657394 
	C337.826599,223.437744 337.891785,212.218185 338.287994,201.069412 
	C339.768402,202.284012 341.065430,203.311264 342.022858,204.592316 
	C345.598846,209.376877 348.883209,214.388351 352.602386,219.055405 
	C366.340393,236.294937 380.142731,253.484344 394.059418,270.579803 
	C399.699921,277.508759 405.499115,284.331482 411.583679,290.869781 
	C418.201019,297.980652 425.260620,304.678680 432.052490,311.629883 
	C432.931091,312.529083 433.361816,313.865906 434.000000,315.000000 
	C402.312439,315.000000 370.624878,315.000000 338.404419,314.651672 
	C336.080872,311.535400 334.500763,308.599670 332.456299,306.033997 
	C328.010925,300.455292 323.179932,295.182159 318.775330,289.573059 
	C310.571594,279.125946 302.222382,268.767365 294.544464,257.938934 
	C281.969299,240.203766 269.928009,222.090775 257.527679,204.230026 
	C256.105286,202.181259 253.828354,200.725754 251.960052,198.588654 
	C256.304749,179.416763 254.722366,160.939468 249.231125,142.265121 
	C246.834702,134.570190 244.475174,127.260902 242.071121,119.572037 
	C241.312195,117.153183 240.735611,115.052658 239.860733,113.084740 
	C234.806885,101.716896 234.921860,90.511993 240.667114,79.407433 
	C241.250473,78.279915 241.553970,77.007614 242.190323,75.238075 
	C236.773911,75.238075 231.863190,75.238075 226.504257,75.178368 
	C223.032959,75.117195 220.009872,75.115723 216.583679,75.032005 
	C212.450211,74.655640 208.719864,74.361511 204.683105,73.953430 
	C201.244156,73.297630 198.111618,72.755783 194.686676,72.101212 
	C190.923630,71.045898 187.452957,70.103294 183.652954,68.993660 
	C179.870804,67.321358 176.417999,65.816093 172.689819,64.099106 
	C168.729095,61.050640 165.148026,58.057678 161.288605,55.481739 
	C160.262573,54.796921 158.382355,55.391861 156.533737,55.213570 
	C155.254761,53.897686 153.953842,52.908840 153.475922,51.615810 
	C147.249313,34.768997 141.139328,17.879074 135.000000,1.000000 
z"/>
<path fill="#252525" opacity="1.000000" stroke="none" 
	d="
M841.000000,282.000000 
	C841.000000,292.975525 841.000000,303.951019 841.000000,315.000000 
	C786.645813,315.000000 732.291565,315.000000 677.398804,314.660889 
	C675.833191,313.054626 675.034668,311.449280 673.741821,310.575104 
	C665.104004,304.734558 656.264709,299.189362 647.677612,293.277008 
	C638.446289,286.921143 629.298523,280.429260 620.338440,273.698364 
	C611.881836,267.345734 603.594360,260.752625 595.454773,253.997452 
	C585.691650,245.894958 575.985535,237.705399 566.590942,229.182953 
	C559.138123,222.421982 552.128418,215.165543 545.036011,208.015961 
	C535.721497,198.626282 526.494080,189.149551 517.308777,179.633408 
	C516.442566,178.736023 516.144226,177.290604 515.726685,175.825867 
	C519.263794,171.707901 522.656311,167.863678 526.393250,164.044006 
	C530.839111,168.671310 534.940552,173.274063 539.148315,178.200531 
	C549.165283,190.351166 559.075989,202.178101 569.087402,214.327820 
	C573.081665,219.202393 576.975281,223.754196 580.968750,228.621338 
	C583.659485,232.089813 586.391174,235.139893 588.796265,238.428772 
	C590.702881,241.035873 592.975769,241.864594 596.379272,241.155914 
	C602.364380,241.270035 607.959717,241.270035 614.669739,241.270035 
	C608.409363,233.901657 602.866516,227.377869 597.188538,220.536423 
	C592.409119,214.721390 587.764954,209.223999 583.014526,203.413727 
	C579.225037,198.751221 575.541626,194.401566 571.754578,189.735336 
	C561.231812,176.951675 550.812744,164.484589 540.284912,151.743027 
	C540.209167,150.556244 540.242126,149.643967 540.572632,148.539978 
	C543.496826,145.199509 545.999573,141.936478 548.774353,138.924088 
	C556.136108,130.932175 563.615417,123.048546 571.355469,114.982620 
	C575.452393,110.589012 579.241821,106.334625 583.338074,101.942604 
	C587.074829,98.195740 590.504639,94.586502 594.226196,91.148956 
	C600.140076,97.077217 605.680969,102.916092 611.404297,108.570267 
	C619.224365,116.295784 627.183228,123.880753 635.075745,131.940903 
	C633.855286,139.858734 631.878906,147.331497 631.581116,154.870575 
	C630.881226,172.590057 634.513611,189.375534 644.989258,204.537689 
	C648.269958,208.857864 651.486328,212.845398 654.841797,217.104858 
	C658.948242,220.729767 662.915649,224.082733 667.080322,227.688660 
	C670.803894,229.989990 674.330322,232.038345 678.091248,234.347961 
	C683.510742,236.526245 688.695679,238.443268 694.191956,240.558258 
	C699.985718,241.559906 705.468140,242.363556 711.324036,243.331879 
	C717.451233,243.207016 723.205078,242.917465 729.348999,242.648071 
	C735.158020,241.097824 740.576782,239.527435 746.324585,237.964096 
	C747.088989,237.917908 747.524536,237.864670 748.127319,238.119659 
	C749.859741,239.616821 751.286011,241.080444 753.011475,241.952118 
	C769.937012,250.503021 786.727905,259.355011 803.936707,267.299133 
	C815.985535,272.861328 828.624573,277.145233 841.000000,282.000000 
z"/>
<path fill="#292929" opacity="1.000000" stroke="none" 
	d="
M841.000000,281.531342 
	C828.624573,277.145233 815.985535,272.861328 803.936707,267.299133 
	C786.727905,259.355011 769.937012,250.503021 753.011475,241.952118 
	C751.286011,241.080444 749.859741,239.616821 748.364380,237.881561 
	C752.613525,234.870041 756.792969,232.404816 761.287231,229.823502 
	C766.551147,224.886459 771.500244,220.065506 776.701782,215.036743 
	C789.305847,199.171219 792.919006,180.906631 792.927856,161.539459 
	C792.929138,158.692139 791.628235,157.748947 788.963867,157.805283 
	C783.648376,157.917679 778.329956,157.891129 772.548706,157.877289 
	C767.726379,157.863876 763.368225,157.895142 758.544922,157.872650 
	C753.056824,157.856110 748.033813,157.893326 742.544983,157.870453 
	C740.758118,157.788666 739.437073,157.754623 738.115967,157.747147 
	C724.736877,157.671371 724.815186,157.667648 725.666992,171.206497 
	C725.844666,174.030365 726.919250,174.978439 729.588318,174.872894 
	C734.040039,174.696808 738.498047,174.680603 743.416504,174.685669 
	C748.906250,174.719269 753.932800,174.664246 759.420288,174.695801 
	C764.244812,174.731171 768.608459,174.679977 773.208862,174.912659 
	C773.228638,177.966614 773.011658,180.736710 772.575684,183.821686 
	C769.396240,193.783722 764.916138,202.578156 757.589966,210.104126 
	C753.203735,213.201981 749.106689,216.133591 744.642334,219.109299 
	C738.843994,220.842850 733.412903,222.532318 727.560181,224.205170 
	C721.758057,224.464661 716.377563,224.740753 710.686401,224.913559 
	C705.242981,223.619308 700.110291,222.428329 694.652283,221.078735 
	C689.590820,218.502106 684.854614,216.084076 679.889099,213.424744 
	C675.785522,209.757217 671.911377,206.330994 667.902954,202.596451 
	C664.257690,196.824692 660.746582,191.361252 657.166138,185.521667 
	C656.085083,182.007721 654.922607,178.909470 654.087219,175.725403 
	C650.097046,160.515884 651.676453,145.645645 657.268677,130.800400 
	C661.750793,124.185829 665.982483,117.805519 670.512573,111.256653 
	C674.534485,107.972084 678.257812,104.856071 682.304077,101.644463 
	C686.758545,99.389755 690.890137,97.230644 695.417603,95.054321 
	C700.202759,93.933716 704.592041,92.830330 709.400635,91.751678 
	C713.880859,91.526604 717.941833,91.276779 722.367554,91.162506 
	C725.819580,91.901947 728.906738,92.505829 732.103577,93.429169 
	C737.491333,96.655968 742.714355,99.669739 748.066406,102.433876 
	C751.739685,104.330948 755.760315,107.567078 759.327026,107.211235 
	C765.458130,106.599556 768.710999,110.408318 772.922058,112.935623 
	C788.450317,122.255066 803.825989,131.837723 819.517761,140.871902 
	C826.355652,144.808670 833.820129,147.657242 841.000000,151.000000 
	C841.000000,194.354233 841.000000,237.708450 841.000000,281.531342 
z"/>
<path fill="#202020" opacity="1.000000" stroke="none" 
	d="
M515.582214,176.099609 
	C516.144226,177.290604 516.442566,178.736023 517.308777,179.633408 
	C526.494080,189.149551 535.721497,198.626282 545.036011,208.015961 
	C552.128418,215.165543 559.138123,222.421982 566.590942,229.182953 
	C575.985535,237.705399 585.691650,245.894958 595.454773,253.997452 
	C603.594360,260.752625 611.881836,267.345734 620.338440,273.698364 
	C629.298523,280.429260 638.446289,286.921143 647.677612,293.277008 
	C656.264709,299.189362 665.104004,304.734558 673.741821,310.575104 
	C675.034668,311.449280 675.833191,313.054626 676.930176,314.660889 
	C620.312439,315.000000 563.624878,315.000000 506.394531,314.662292 
	C505.379730,313.663208 505.007690,312.891907 504.420044,312.357666 
	C499.097107,307.518494 493.645691,302.817139 488.411316,297.885040 
	C482.631317,292.438934 477.021271,286.811493 471.372772,281.227051 
	C466.795685,276.701904 462.119507,272.263184 457.762054,267.533051 
	C452.417877,261.731720 447.459991,255.575836 442.155029,249.736786 
	C433.542480,240.257065 424.395325,231.234436 416.197571,221.414688 
	C408.261108,211.907883 401.262238,201.620331 393.803314,191.712021 
	C389.930939,186.568039 385.939331,181.513992 382.029083,176.398315 
	C378.718994,172.067871 375.249939,167.841263 372.203491,163.330780 
	C366.545349,154.953461 361.084869,146.439987 355.692749,137.888214 
	C354.771393,136.426971 354.599304,134.493301 354.330322,132.927917 
	C355.025543,133.445724 355.471558,133.813507 356.045929,134.489441 
	C359.738220,139.300781 363.302155,143.803940 366.979950,148.618195 
	C371.059845,153.961548 375.025848,158.993805 379.114227,164.340393 
	C383.112915,169.548965 386.989258,174.443222 390.977600,179.647964 
	C395.365692,185.377991 399.641754,190.797516 404.033447,196.527496 
	C408.192383,202.011902 412.235626,207.185852 416.448425,212.668732 
	C421.638214,219.367706 426.658478,225.757736 431.816101,232.465332 
	C433.019104,234.197296 433.895447,235.826431 435.196747,236.973526 
	C436.955444,238.523849 439.040588,239.703827 441.370117,241.150681 
	C445.679779,241.258652 449.604919,241.258652 453.848175,241.258652 
	C453.848175,238.623611 453.847961,236.641983 453.848206,234.660339 
	C453.852081,201.905350 453.837158,169.150330 453.869202,136.395370 
	C453.882019,123.264580 453.998444,110.133896 454.400452,97.075195 
	C458.807953,102.221817 462.925537,107.262856 466.940979,112.383957 
	C469.239899,115.315926 471.356384,118.390350 473.587616,121.376274 
	C474.652344,122.801132 475.633759,124.347382 476.941132,125.516312 
	C478.448120,126.863762 480.273254,127.855400 482.045166,129.463501 
	C482.130127,167.118240 482.130127,204.311005 482.130127,241.847687 
	C484.798065,241.847687 486.906403,241.847687 489.455109,241.908569 
	C492.265137,241.923264 494.634766,241.877075 497.420258,241.899506 
	C501.616821,242.668304 502.706421,240.988373 502.649048,237.324402 
	C502.469849,225.875671 502.945648,214.407318 502.467834,202.975800 
	C502.118256,194.612595 502.455933,186.924759 510.082764,181.594513 
	C510.197845,181.514069 510.217834,181.297638 510.563293,181.005829 
	C511.654358,179.914841 512.464355,178.962677 513.551331,177.932068 
	C514.257080,177.474396 514.685791,177.095123 515.156616,176.504944 
	C515.198608,176.294052 515.582214,176.099609 515.582214,176.099609 
z"/>
<path fill="#202020" opacity="1.000000" stroke="none" 
	d="
M317.691101,108.013069 
	C316.218750,107.177391 314.030853,106.709465 313.383484,105.449829 
	C305.945160,90.975975 298.489166,76.500671 291.542877,61.787361 
	C284.168701,46.167778 277.253784,30.328527 270.326050,14.503008 
	C268.537476,10.417225 267.453003,6.023231 266.022522,1.385409 
	C309.687561,1.000000 353.375122,1.000000 397.552307,1.367021 
	C399.626099,4.822378 401.185822,7.923548 402.798492,10.996943 
	C412.055664,28.639309 421.246460,46.317345 430.652313,63.880157 
	C432.727631,67.755173 436.985413,70.983139 431.256592,75.344566 
	C430.158142,76.180817 430.005524,78.786346 430.084900,80.545479 
	C430.339203,86.179482 430.754700,91.818306 431.450409,97.412682 
	C431.650055,99.018082 433.009186,100.479286 433.899719,102.471146 
	C433.976074,135.313934 434.001923,167.692215 433.963837,200.070419 
	C433.962006,201.624344 433.396118,203.177628 432.995239,204.415039 
	C428.420959,198.390137 423.944366,192.681427 419.339600,186.698929 
	C414.839386,180.882797 410.467316,175.340485 405.995270,169.479248 
	C401.387726,163.432678 396.880127,157.705048 392.264252,151.704651 
	C388.664062,146.967941 385.172180,142.503998 381.551208,137.744049 
	C377.607910,132.634949 373.793701,127.821846 369.863159,122.691368 
	C366.206116,117.896812 362.665375,113.419617 358.999329,108.624557 
	C355.615845,104.189781 352.357666,100.072876 348.972809,95.639236 
	C345.589264,91.205368 342.332397,87.088249 338.947540,82.651772 
	C335.933441,78.194878 333.539001,73.260239 326.549194,74.987442 
	C316.511475,74.775978 318.056976,74.665390 317.940735,82.702835 
	C317.818726,91.139015 317.771179,99.576279 317.691101,108.013069 
z"/>
<path fill="#2D2D2D" opacity="1.000000" stroke="none" 
	d="
M841.000000,150.531342 
	C833.820129,147.657242 826.355652,144.808670 819.517761,140.871902 
	C803.825989,131.837723 788.450317,122.255066 772.922058,112.935623 
	C768.710999,110.408318 765.458130,106.599556 759.327026,107.211235 
	C755.760315,107.567078 751.739685,104.330948 748.066406,102.433876 
	C742.714355,99.669739 737.491333,96.655968 732.454712,93.400131 
	C733.399780,93.088135 734.103394,93.124641 735.096680,93.379791 
	C740.170654,95.460365 744.954956,97.322296 749.968201,99.437469 
	C752.408813,101.153084 754.525330,102.803276 756.874512,103.994522 
	C757.964478,104.547234 760.124634,104.808220 760.743164,104.172913 
	C764.386841,100.430206 767.719299,96.384575 772.074341,91.388069 
	C764.822449,87.324715 758.402405,83.727455 751.674316,79.940826 
	C746.246704,78.147163 741.127075,76.542862 735.660400,74.777763 
	C732.206421,74.020264 729.099426,73.423576 726.057861,72.502350 
	C725.505676,70.508606 725.335632,68.395103 724.194458,67.245743 
	C718.734314,61.746181 712.896973,56.621964 707.414551,51.143394 
	C702.293274,46.025780 697.481995,40.599354 692.474304,35.366264 
	C687.423279,30.087826 682.145569,25.017559 677.261414,19.591288 
	C674.175110,16.162439 671.484314,12.345492 668.892578,8.515529 
	C667.322266,6.194966 666.279663,3.517268 665.000000,1.000009 
	C723.587830,1.000000 782.175720,1.000000 841.000000,1.000000 
	C841.000000,50.687309 841.000000,100.375000 841.000000,150.531342 
z"/>
<path fill="#252525" opacity="1.000000" stroke="none" 
	d="
M433.836639,102.006607 
	C433.009186,100.479286 431.650055,99.018082 431.450409,97.412682 
	C430.754700,91.818306 430.339203,86.179482 430.084900,80.545479 
	C430.005524,78.786346 430.158142,76.180817 431.256592,75.344566 
	C436.985413,70.983139 432.727631,67.755173 430.652313,63.880157 
	C421.246460,46.317345 412.055664,28.639309 402.798492,10.996943 
	C401.185822,7.923548 399.626099,4.822378 398.020935,1.367021 
	C442.020905,1.000000 486.041779,1.000000 530.553101,1.370206 
	C532.220459,4.274811 533.073914,7.029367 534.625305,9.308908 
	C547.553528,28.304977 560.545288,47.258842 573.676575,66.114861 
	C576.738037,70.510933 580.940491,74.314102 578.064453,80.737534 
	C575.304077,84.073166 572.669617,87.112915 569.741089,90.298218 
	C559.319641,101.698875 549.192261,112.953979 538.776367,124.361694 
	C533.318176,130.324982 528.148499,136.135651 522.672546,142.083649 
	C517.140625,148.105331 511.915009,153.989685 506.386627,160.032776 
	C505.467377,161.306564 504.850891,162.421600 504.234406,163.536621 
	C503.665955,163.177979 503.097504,162.819321 502.529053,162.460678 
	C502.529053,133.378891 502.529053,104.297119 502.529053,75.055618 
	C500.260742,75.055618 498.631378,75.055618 496.564880,74.964218 
	C493.749512,74.926605 491.371277,74.980392 488.644409,74.936386 
	C486.362183,74.838600 484.428589,74.838600 481.960236,74.838600 
	C481.960236,93.299149 481.960236,111.150352 481.960236,129.001556 
	C480.273254,127.855400 478.448120,126.863762 476.941132,125.516312 
	C475.633759,124.347382 474.652344,122.801132 473.587616,121.376274 
	C471.356384,118.390350 469.239899,115.315926 466.940979,112.383957 
	C462.925537,107.262856 458.807953,102.221817 454.315674,96.612915 
	C453.898163,89.181053 453.898163,82.283493 453.898163,75.058403 
	C449.165009,75.058403 445.083099,75.058403 440.556763,74.977516 
	C438.195892,74.896629 436.279480,74.896629 433.836639,74.896629 
	C433.836639,84.399811 433.836639,93.203209 433.836639,102.006607 
z"/>
<path fill="#292929" opacity="1.000000" stroke="none" 
	d="
M578.190308,80.441650 
	C580.940491,74.314102 576.738037,70.510933 573.676575,66.114861 
	C560.545288,47.258842 547.553528,28.304977 534.625305,9.308908 
	C533.073914,7.029367 532.220459,4.274811 531.021729,1.370206 
	C575.354248,1.000000 619.708435,1.000000 664.531311,1.000009 
	C666.279663,3.517268 667.322266,6.194966 668.892578,8.515529 
	C671.484314,12.345492 674.175110,16.162439 677.261414,19.591288 
	C682.145569,25.017559 687.423279,30.087826 692.474304,35.366264 
	C697.481995,40.599354 702.293274,46.025780 707.414551,51.143394 
	C712.896973,56.621964 718.734314,61.746181 724.194458,67.245743 
	C725.335632,68.395103 725.505676,70.508606 725.658936,72.556557 
	C724.125122,73.010689 723.055603,73.086098 721.526489,73.106445 
	C717.040955,73.088623 713.015015,73.125862 708.556885,73.107079 
	C703.094421,74.039856 698.064209,75.028664 692.643188,76.043121 
	C688.497864,77.459274 684.743286,78.849762 680.647705,80.278168 
	C675.860657,83.206345 671.414612,86.096611 666.642334,89.087753 
	C662.489807,92.648308 658.663574,96.107994 654.543213,99.749390 
	C650.788879,104.598457 647.328796,109.265823 643.591858,114.134392 
	C640.570862,120.065720 637.826782,125.795845 635.082642,131.525970 
	C627.183228,123.880753 619.224365,116.295784 611.404297,108.570267 
	C605.680969,102.916092 600.140076,97.077217 594.340454,90.836655 
	C595.315002,88.997025 596.466980,87.641380 597.884094,86.115997 
	C601.278809,82.486397 604.408386,79.026535 608.001648,75.054169 
	C603.287476,75.054169 599.642273,75.054169 595.542236,74.969025 
	C592.933350,74.866447 590.719299,74.528099 588.640991,74.916283 
	C586.272522,75.358658 584.025146,76.448944 581.437012,77.442673 
	C580.162781,78.565697 579.176514,79.503677 578.190308,80.441650 
z"/>
<path fill="#181818" opacity="1.000000" stroke="none" 
	d="
M251.947632,198.995193 
	C253.828354,200.725754 256.105286,202.181259 257.527679,204.230026 
	C269.928009,222.090775 281.969299,240.203766 294.544464,257.938934 
	C302.222382,268.767365 310.571594,279.125946 318.775330,289.573059 
	C323.179932,295.182159 328.010925,300.455292 332.456299,306.033997 
	C334.500763,308.599670 336.080872,311.535400 337.935760,314.651672 
	C295.645782,315.000000 253.291550,315.000000 210.468658,315.000000 
	C208.702682,312.573700 207.606186,310.011932 206.075668,307.742950 
	C195.703751,292.366760 185.256653,277.041107 174.790176,261.729004 
	C173.019104,259.138000 171.036880,256.691315 169.179825,253.587982 
	C171.135025,251.657669 173.062607,250.317337 175.358383,248.941162 
	C180.140991,247.200699 184.555405,245.496109 189.364609,243.790863 
	C193.831421,242.804840 197.903442,241.819489 202.369064,240.862366 
	C206.857178,239.629272 210.951660,238.367966 215.420258,237.095016 
	C219.201279,235.400253 222.608185,233.717133 226.356323,231.972107 
	C229.179474,230.070892 231.661377,228.231628 234.452835,226.239410 
	C237.575607,222.820038 240.388824,219.553589 243.470505,216.072632 
	C245.829239,211.574219 247.919510,207.290344 250.218964,202.765198 
	C250.934647,201.347656 251.441132,200.171432 251.947632,198.995193 
z"/>
<path fill="#1D1D1D" opacity="1.000000" stroke="none" 
	d="
M354.081116,132.777878 
	C354.599304,134.493301 354.771393,136.426971 355.692749,137.888214 
	C361.084869,146.439987 366.545349,154.953461 372.203491,163.330780 
	C375.249939,167.841263 378.718994,172.067871 382.029083,176.398315 
	C385.939331,181.513992 389.930939,186.568039 393.803314,191.712021 
	C401.262238,201.620331 408.261108,211.907883 416.197571,221.414688 
	C424.395325,231.234436 433.542480,240.257065 442.155029,249.736786 
	C447.459991,255.575836 452.417877,261.731720 457.762054,267.533051 
	C462.119507,272.263184 466.795685,276.701904 471.372772,281.227051 
	C477.021271,286.811493 482.631317,292.438934 488.411316,297.885040 
	C493.645691,302.817139 499.097107,307.518494 504.420044,312.357666 
	C505.007690,312.891907 505.379730,313.663208 505.925903,314.662292 
	C482.312439,315.000000 458.624878,315.000000 434.468658,315.000000 
	C433.361816,313.865906 432.931091,312.529083 432.052490,311.629883 
	C425.260620,304.678680 418.201019,297.980652 411.583679,290.869781 
	C405.499115,284.331482 399.699921,277.508759 394.059418,270.579803 
	C380.142731,253.484344 366.340393,236.294937 352.602386,219.055405 
	C348.883209,214.388351 345.598846,209.376877 342.022858,204.592316 
	C341.065430,203.311264 339.768402,202.284012 338.227844,200.603943 
	C337.865814,170.663361 337.903198,141.259064 338.222229,112.053879 
	C340.969666,115.249855 343.435486,118.246704 346.012543,121.555832 
	C348.776245,125.504700 351.428680,129.141281 354.081116,132.777878 
z"/>
<path fill="#161616" opacity="1.000000" stroke="none" 
	d="
M134.531342,1.000000 
	C141.139328,17.879074 147.249313,34.768997 153.475922,51.615810 
	C153.953842,52.908840 155.254761,53.897686 156.334961,55.514393 
	C152.597778,58.971577 148.698776,61.942284 144.443771,64.936951 
	C141.042038,66.266991 137.996277,67.573074 134.565002,68.951706 
	C130.791977,70.077965 127.404503,71.131660 123.613235,72.150986 
	C120.142769,72.754333 117.076096,73.392052 113.567902,74.005157 
	C109.423386,74.376328 105.720383,74.772118 101.567818,75.097031 
	C98.093979,75.095215 95.069717,75.164268 91.582130,75.152969 
	C86.266113,75.072624 81.413414,75.072624 75.403648,75.072624 
	C84.852745,89.596573 83.557465,103.450150 77.157982,117.381378 
	C76.957504,117.817810 76.980095,118.356712 76.695587,119.028694 
	C76.159325,119.846428 75.826172,120.483307 75.493011,121.120193 
	C73.833992,118.719231 71.609390,116.533127 70.603096,113.884201 
	C60.112686,86.269600 49.641518,58.644680 39.566460,30.876965 
	C36.129658,21.404854 33.824677,11.522081 31.001276,1.413473 
	C65.354225,1.000000 99.708458,1.000000 134.531342,1.000000 
z"/>
<path fill="#896435" opacity="1.000000" stroke="none" 
	d="
M69.883163,205.058838 
	C64.952385,195.110031 63.817287,184.342957 64.469589,173.588913 
	C65.058052,163.887268 67.164619,154.277695 69.063980,144.591003 
	C70.016388,147.025330 70.407234,149.521561 71.030342,151.958405 
	C71.469307,153.675140 72.223793,155.311172 72.864861,157.413528 
	C72.974594,170.101044 73.056877,182.358261 72.979797,194.980865 
	C71.841347,198.583771 70.862251,201.821304 69.883163,205.058838 
z"/>
<path fill="#E8DE9A" opacity="1.000000" stroke="none" 
	d="
M174.990204,248.977020 
	C173.062607,250.317337 171.135025,251.657669 169.018387,253.260315 
	C165.656357,256.338013 162.483368,259.153412 159.342361,261.940430 
	C155.001022,258.215240 150.648239,254.480225 146.117905,250.044907 
	C146.340286,247.396606 146.740234,245.448639 147.479431,243.634552 
	C151.674774,246.465561 155.530899,249.162689 158.929398,251.539749 
	C164.053314,248.364029 169.038742,245.274155 174.182587,242.527527 
	C174.557404,244.906174 174.773804,246.941589 174.990204,248.977020 
z"/>
<path fill="#916D3C" opacity="1.000000" stroke="none" 
	d="
M72.837410,156.983246 
	C72.223793,155.311172 71.469307,153.675140 71.030342,151.958405 
	C70.407234,149.521561 70.016388,147.025330 69.264603,144.277359 
	C71.092415,136.623016 73.181923,129.245773 75.382225,121.494370 
	C75.826172,120.483307 76.159325,119.846428 76.868515,119.404510 
	C78.280342,122.446617 79.316132,125.293762 80.284454,128.525421 
	C77.757133,138.267700 75.297272,147.625473 72.837410,156.983246 
z"/>
<path fill="#936F3E" opacity="1.000000" stroke="none" 
	d="
M69.936905,205.421036 
	C70.862251,201.821304 71.841347,198.583771 73.189453,195.321014 
	C76.695770,201.867310 79.833076,208.438812 82.644150,215.135620 
	C81.504311,217.258835 80.690712,219.256775 79.877121,221.254700 
	C76.581619,216.097549 73.286133,210.940384 69.936905,205.421036 
z"/>
<path fill="#A0804C" opacity="1.000000" stroke="none" 
	d="
M80.035492,221.539703 
	C80.690712,219.256775 81.504311,217.258835 82.920822,215.320938 
	C86.367523,218.176910 89.211327,220.972855 92.038795,224.172852 
	C91.689621,226.662506 91.356766,228.748093 91.023911,230.833679 
	C87.413902,227.830688 83.803886,224.827698 80.035492,221.539703 
z"/>
<path fill="#AC8F58" opacity="1.000000" stroke="none" 
	d="
M91.282982,231.065552 
	C91.356766,228.748093 91.689621,226.662506 92.339188,224.296265 
	C94.044701,224.991653 95.433495,225.967712 96.937958,227.173508 
	C97.349060,227.489105 97.644485,227.574951 98.300461,227.733032 
	C100.609825,228.756882 102.558647,229.708542 104.221497,230.957794 
	C103.627533,233.139679 103.319542,235.023956 103.011543,236.908249 
	C99.188377,235.037979 95.365219,233.167709 91.282982,231.065552 
z"/>
<path fill="#DBCD8B" opacity="1.000000" stroke="none" 
	d="
M147.140182,243.500656 
	C146.740234,245.448639 146.340286,247.396606 145.923706,249.777145 
	C142.410339,248.696487 138.913635,247.183273 135.181946,244.952209 
	C135.006638,242.319321 135.066299,240.404282 135.504593,238.583984 
	C139.635529,240.286026 143.387863,241.893341 147.140182,243.500656 
z"/>
<path fill="#CDBD7F" opacity="1.000000" stroke="none" 
	d="
M135.125977,238.489258 
	C135.066299,240.404282 135.006638,242.319321 134.932724,244.712555 
	C131.164780,244.246979 127.411095,243.303207 123.327744,241.711273 
	C123.039131,239.196259 123.080177,237.329407 123.530243,235.514252 
	C127.668159,236.540390 131.397064,237.514816 135.125977,238.489258 
z"/>
<path fill="#B89E65" opacity="1.000000" stroke="none" 
	d="
M103.322815,237.095337 
	C103.319542,235.023956 103.627533,233.139679 104.578636,231.024597 
	C107.821716,231.614136 110.421677,232.434464 113.019646,233.670624 
	C113.014824,236.031448 113.012001,237.976471 113.009186,239.921478 
	C109.884155,239.041779 106.759117,238.162094 103.322815,237.095337 
z"/>
<path fill="#C3AE71" opacity="1.000000" stroke="none" 
	d="
M113.356277,240.078979 
	C113.012001,237.976471 113.014824,236.031448 113.390228,233.690918 
	C116.882278,234.017776 120.001747,234.740158 123.121231,235.462540 
	C123.080177,237.329407 123.039131,239.196259 123.000008,241.528687 
	C119.902412,241.408325 116.802895,240.822403 113.356277,240.078979 
z"/>
<path fill="#8B6637" opacity="1.000000" stroke="none" 
	d="
M337.940613,111.854759 
	C337.903198,141.259064 337.865814,170.663361 337.888550,200.533112 
	C337.891785,212.218185 337.826599,223.437744 337.780975,234.657394 
	C337.752228,241.725540 337.765259,241.733551 330.668945,241.587158 
	C329.683838,241.566833 328.701324,241.423019 327.353973,240.723297 
	C326.994019,185.087692 326.997681,130.065155 327.001343,75.042625 
	C333.539001,73.260239 335.933441,78.194878 338.583191,82.809853 
	C338.211487,92.809776 338.076050,102.332268 337.940613,111.854759 
z"/>
<path fill="#8B6434" opacity="1.000000" stroke="none" 
	d="
M326.549194,74.987442 
	C326.997681,130.065155 326.994019,185.087692 326.985565,240.583221 
	C317.917450,241.509537 317.921722,241.509537 317.915741,232.709290 
	C317.887726,191.452972 317.857117,150.196671 317.759277,108.476715 
	C317.771179,99.576279 317.818726,91.139015 317.940735,82.702835 
	C318.056976,74.665390 316.511475,74.775978 326.549194,74.987442 
z"/>
<path fill="#9A7A48" opacity="1.000000" stroke="none" 
	d="
M226.952484,75.238075 
	C231.863190,75.238075 236.773911,75.238075 242.190323,75.238075 
	C241.553970,77.007614 241.250473,78.279915 240.667114,79.407433 
	C234.921860,90.511993 234.806885,101.716896 239.860733,113.084740 
	C240.735611,115.052658 241.312195,117.153183 241.798553,119.834152 
	C240.656189,123.473022 239.741867,126.470207 238.605286,129.155365 
	C233.038391,113.863152 224.836899,99.319824 231.979767,82.362488 
	C229.537659,82.145332 227.751694,81.986526 226.055389,81.468536 
	C226.414200,79.152260 226.683334,77.195168 226.952484,75.238075 
z"/>
<path fill="#896435" opacity="1.000000" stroke="none" 
	d="
M251.960052,198.588654 
	C251.441132,200.171432 250.934647,201.347656 249.981995,202.470337 
	C248.486786,198.859726 247.437744,195.302704 246.464966,191.312256 
	C246.360550,179.585693 246.179855,168.292542 246.354889,156.843353 
	C247.141388,154.872375 247.660980,153.072968 247.982361,151.238846 
	C248.481796,148.388565 248.846329,145.514648 249.268036,142.650757 
	C254.722366,160.939468 256.304749,179.416763 251.960052,198.588654 
z"/>
<path fill="#E8DE9A" opacity="1.000000" stroke="none" 
	d="
M144.799759,64.912994 
	C148.698776,61.942284 152.597778,58.971577 156.695557,55.700043 
	C158.382355,55.391861 160.262573,54.796921 161.288605,55.481739 
	C165.148026,58.057678 168.729095,61.050640 172.690109,64.499008 
	C172.591766,67.099373 172.217773,69.088104 171.501862,71.024033 
	C167.154388,68.433884 163.148819,65.896538 159.384384,63.511932 
	C155.159256,66.051933 151.075668,68.506844 146.842773,70.626488 
	C146.062210,68.498482 145.430984,66.705734 144.799759,64.912994 
z"/>
<path fill="#916D3C" opacity="1.000000" stroke="none" 
	d="
M249.231125,142.265121 
	C248.846329,145.514648 248.481796,148.388565 247.982361,151.238846 
	C247.660980,153.072968 247.141388,154.872375 246.212646,156.484268 
	C243.418961,147.343262 241.123245,138.405334 238.827545,129.467392 
	C239.741867,126.470207 240.656189,123.473022 241.843079,120.213730 
	C244.475174,127.260902 246.834702,134.570190 249.231125,142.265121 
z"/>
<path fill="#DBCD8B" opacity="1.000000" stroke="none" 
	d="
M171.843765,71.076843 
	C172.217773,69.088104 172.591766,67.099373 172.965485,64.710732 
	C176.417999,65.816093 179.870804,67.321358 183.656998,69.419189 
	C183.993317,72.002640 183.996231,73.993523 183.620728,75.981003 
	C179.442795,74.344017 175.643280,72.710426 171.843765,71.076843 
z"/>
<path fill="#B89E65" opacity="1.000000" stroke="none" 
	d="
M204.989502,74.067390 
	C208.719864,74.361511 212.450211,74.655640 216.586151,75.492004 
	C216.961655,77.881676 216.931580,79.729095 216.452286,81.617523 
	C212.300568,81.303421 208.598083,80.948318 204.915085,80.125961 
	C204.952896,77.794930 204.971207,75.931160 204.989502,74.067390 
z"/>
<path fill="#CDBD7F" opacity="1.000000" stroke="none" 
	d="
M183.999146,75.984398 
	C183.996231,73.993523 183.993317,72.002640 183.986359,69.586227 
	C187.452957,70.103294 190.923630,71.045898 194.689453,72.517731 
	C194.986893,74.994995 194.989166,76.943008 194.659424,78.921371 
	C193.884918,78.968124 193.442429,78.984535 192.679962,78.812912 
	C189.573059,77.744720 186.786102,76.864563 183.999146,75.984398 
z"/>
<path fill="#C5B174" opacity="1.000000" stroke="none" 
	d="
M194.991425,78.891037 
	C194.989166,76.943008 194.986893,74.994995 194.981842,72.630455 
	C198.111618,72.755783 201.244156,73.297630 204.683105,73.953430 
	C204.971207,75.931160 204.952896,77.794930 204.477173,80.107216 
	C201.010300,80.000832 198.000870,79.445930 194.991425,78.891037 
z"/>
<path fill="#AE925A" opacity="1.000000" stroke="none" 
	d="
M216.901489,81.576523 
	C216.931580,79.729095 216.961655,77.881676 216.989258,75.574249 
	C220.009872,75.115723 223.032959,75.117195 226.504242,75.178368 
	C226.683334,77.195168 226.414200,79.152260 225.627563,81.506767 
	C222.373886,81.794960 219.637695,81.685738 216.901489,81.576523 
z"/>
<path fill="#CCB97B" opacity="1.000000" stroke="none" 
	d="
M635.075745,131.940903 
	C637.826782,125.795845 640.570862,120.065720 643.917297,114.365677 
	C645.013062,116.580757 645.925720,118.763878 645.935547,120.951057 
	C646.039673,144.078232 646.057678,167.206314 645.951294,190.333466 
	C645.930054,194.958801 645.283325,199.581268 644.924988,204.205048 
	C634.513611,189.375534 630.881226,172.590057 631.581116,154.870575 
	C631.878906,147.331497 633.855286,139.858734 635.075745,131.940903 
z"/>
<path fill="#C8B477" opacity="1.000000" stroke="none" 
	d="
M644.989258,204.537689 
	C645.283325,199.581268 645.930054,194.958801 645.951294,190.333466 
	C646.057678,167.206314 646.039673,144.078232 645.935547,120.951057 
	C645.925720,118.763878 645.013062,116.580757 644.194153,114.164474 
	C647.328796,109.265823 650.788879,104.598457 654.642090,100.188385 
	C655.356812,105.883301 655.656067,111.322372 656.006714,116.758125 
	C656.313904,121.518906 656.678833,126.275955 657.018311,131.034653 
	C651.676453,145.645645 650.097046,160.515884 654.087219,175.725403 
	C654.922607,178.909470 656.085083,182.007721 656.869873,185.789612 
	C656.095764,188.620346 655.150818,190.792877 655.072815,192.996140 
	C654.791443,200.936142 654.802246,208.886490 654.702759,216.832932 
	C651.486328,212.845398 648.269958,208.857864 644.989258,204.537689 
z"/>
<path fill="#EEE6A0" opacity="1.000000" stroke="none" 
	d="
M540.393616,152.017517 
	C550.812744,164.484589 561.231812,176.951675 571.550049,190.088150 
	C571.299133,196.830383 571.284607,202.911530 570.912842,208.970764 
	C570.807861,210.681808 569.657593,212.328720 568.986755,214.005035 
	C559.075989,202.178101 549.165283,190.351166 539.143616,177.739822 
	C539.486328,168.642776 539.940002,160.330139 540.393616,152.017517 
z"/>
<path fill="#EEE6A0" opacity="1.000000" stroke="none" 
	d="
M539.064880,124.209084 
	C549.192261,112.953979 559.319641,101.698875 569.728638,90.726517 
	C570.356140,99.046799 570.702026,107.084320 571.047913,115.121841 
	C563.615417,123.048546 556.136108,130.932175 548.774353,138.924088 
	C545.999573,141.936478 543.496826,145.199509 540.518127,148.025726 
	C539.799072,139.871796 539.431946,132.040436 539.064880,124.209084 
z"/>
<path fill="#E8DE9A" opacity="1.000000" stroke="none" 
	d="
M538.776367,124.361694 
	C539.431946,132.040436 539.799072,139.871796 540.220581,148.217407 
	C540.242126,149.643967 540.209167,150.556244 540.284912,151.743027 
	C539.940002,160.330139 539.486328,168.642776 539.037354,177.416107 
	C534.940552,173.274063 530.839111,168.671310 526.033203,163.883606 
	C524.885864,161.865143 524.205322,160.052185 524.044861,158.194290 
	C523.577942,152.787933 523.319214,147.363586 522.978821,141.946320 
	C528.148499,136.135651 533.318176,130.324982 538.776367,124.361694 
z"/>
<path fill="#E0D492" opacity="1.000000" stroke="none" 
	d="
M522.672546,142.083633 
	C523.319214,147.363586 523.577942,152.787933 524.044861,158.194290 
	C524.205322,160.052185 524.885864,161.865143 525.688843,163.859039 
	C522.656311,167.863678 519.263794,171.707901 515.726685,175.825867 
	C515.582214,176.099609 515.198608,176.294052 514.849976,176.613678 
	C514.092346,177.292374 513.683350,177.651459 513.274353,178.010513 
	C512.464355,178.962677 511.654358,179.914841 510.224670,180.775391 
	C509.070099,178.386871 508.334930,176.115097 508.042725,173.787720 
	C507.462524,169.166046 507.126373,164.513718 506.689392,159.874054 
	C511.915009,153.989685 517.140625,148.105331 522.672546,142.083633 
z"/>
<path fill="#C3AE71" opacity="1.000000" stroke="none" 
	d="
M654.841797,217.104858 
	C654.802246,208.886490 654.791443,200.936142 655.072815,192.996140 
	C655.150818,190.792877 656.095764,188.620346 656.939270,186.165771 
	C660.746582,191.361252 664.257690,196.824692 667.892822,203.071381 
	C667.638977,211.714996 667.261047,219.575348 666.883118,227.435699 
	C662.915649,224.082733 658.948242,220.729767 654.841797,217.104858 
z"/>
<path fill="#E3D894" opacity="1.000000" stroke="none" 
	d="
M583.120728,203.726608 
	C587.764954,209.223999 592.409119,214.721390 596.906250,220.861877 
	C596.502625,228.017242 596.246094,234.529510 595.989563,241.041779 
	C592.975769,241.864594 590.702881,241.035873 588.796265,238.428772 
	C586.391174,235.139893 583.659485,232.089813 581.164429,228.265503 
	C581.839905,225.417358 582.818787,223.259109 582.921814,221.059845 
	C583.192078,215.291641 583.080261,209.505569 583.120728,203.726608 
z"/>
<path fill="#A98B55" opacity="1.000000" stroke="none" 
	d="
M710.997070,225.016830 
	C716.377563,224.740753 721.758057,224.464661 727.655029,224.596741 
	C728.433960,230.879257 728.696411,236.753586 728.958862,242.627930 
	C723.205078,242.917465 717.451233,243.207016 711.335815,242.852188 
	C710.981873,236.477478 710.989441,230.747162 710.997070,225.016830 
z"/>
<path fill="#E9DF9A" opacity="1.000000" stroke="none" 
	d="
M583.014526,203.413727 
	C583.080261,209.505569 583.192078,215.291641 582.921814,221.059845 
	C582.818787,223.259109 581.839905,225.417358 581.064453,227.950150 
	C576.975281,223.754196 573.081665,219.202393 569.087402,214.327820 
	C569.657593,212.328720 570.807861,210.681808 570.912842,208.970764 
	C571.284607,202.911530 571.299133,196.830383 571.653687,190.404724 
	C575.541626,194.401566 579.225037,198.751221 583.014526,203.413727 
z"/>
<path fill="#A0804C" opacity="1.000000" stroke="none" 
	d="
M729.348999,242.648056 
	C728.696411,236.753586 728.433960,230.879257 728.076660,224.613358 
	C733.412903,222.532318 738.843994,220.842850 744.670105,219.524567 
	C745.375305,225.916183 745.685425,231.936615 745.995605,237.957047 
	C740.576782,239.527435 735.158020,241.097824 729.348999,242.648056 
z"/>
<path fill="#B89E65" opacity="1.000000" stroke="none" 
	d="
M680.118469,213.666046 
	C684.854614,216.084076 689.590820,218.502106 694.655945,221.530487 
	C694.616821,228.213974 694.248718,234.287125 693.880676,240.360275 
	C688.695679,238.443268 683.510742,236.526245 678.415710,234.112167 
	C679.003479,231.772095 679.840576,229.945892 679.932922,228.082794 
	C680.170776,223.285934 680.078674,218.472733 680.118469,213.666046 
z"/>
<path fill="#E9DF9A" opacity="1.000000" stroke="none" 
	d="
M571.355469,114.982620 
	C570.702026,107.084320 570.356140,99.046799 570.022705,90.580971 
	C572.669617,87.112915 575.304077,84.073166 578.064453,80.737534 
	C579.176514,79.503677 580.162781,78.565697 581.491577,77.958084 
	C582.233154,86.219048 582.632202,94.149651 583.031189,102.080246 
	C579.241821,106.334625 575.452393,110.589012 571.355469,114.982620 
z"/>
<path fill="#B1965D" opacity="1.000000" stroke="none" 
	d="
M694.191956,240.558258 
	C694.248718,234.287125 694.616821,228.213974 694.981262,221.689087 
	C700.110291,222.428329 705.242981,223.619308 710.686401,224.913559 
	C710.989441,230.747162 710.981873,236.477478 710.962402,242.687500 
	C705.468140,242.363556 699.985718,241.559906 694.191956,240.558258 
z"/>
<path fill="#9A7845" opacity="1.000000" stroke="none" 
	d="
M746.324585,237.964096 
	C745.685425,231.936615 745.375305,225.916183 745.037354,219.480469 
	C749.106689,216.133591 753.203735,213.201981 757.957397,210.266144 
	C759.075928,212.079620 759.773560,213.874283 759.953918,215.719513 
	C760.416077,220.447556 760.648254,225.198090 760.972412,229.939606 
	C756.792969,232.404816 752.613525,234.870041 748.197021,237.573349 
	C747.524536,237.864670 747.088989,237.917908 746.324585,237.964096 
z"/>
<path fill="#E3D894" opacity="1.000000" stroke="none" 
	d="
M583.338074,101.942612 
	C582.632202,94.149651 582.233154,86.219048 581.779663,77.773041 
	C584.025146,76.448944 586.272522,75.358658 588.640991,74.916283 
	C590.719299,74.528099 592.933350,74.866447 595.543213,75.425171 
	C596.539001,79.406212 597.079041,82.845978 597.619019,86.285744 
	C596.466980,87.641380 595.315002,88.997025 594.048706,90.664963 
	C590.504639,94.586502 587.074829,98.195740 583.338074,101.942612 
z"/>
<path fill="#BFA86C" opacity="1.000000" stroke="none" 
	d="
M679.889099,213.424744 
	C680.078674,218.472733 680.170776,223.285934 679.932922,228.082794 
	C679.840576,229.945892 679.003479,231.772095 678.181213,233.850922 
	C674.330322,232.038345 670.803894,229.989990 667.080322,227.688675 
	C667.261047,219.575348 667.638977,211.714996 668.027100,203.379700 
	C671.911377,206.330994 675.785522,209.757217 679.889099,213.424744 
z"/>
<path fill="#DDD08E" opacity="1.000000" stroke="none" 
	d="
M596.379272,241.155914 
	C596.246094,234.529510 596.502625,228.017242 597.041504,221.179520 
	C602.866516,227.377869 608.409363,233.901657 614.669739,241.270035 
	C607.959717,241.270035 602.364380,241.270035 596.379272,241.155914 
z"/>
<path fill="#8C6637" opacity="1.000000" stroke="none" 
	d="
M772.794678,183.506821 
	C773.011658,180.736710 773.228638,177.966614 773.214661,174.475113 
	C772.993408,168.476471 773.003052,163.199219 773.012756,157.921967 
	C778.329956,157.891129 783.648376,157.917679 788.963867,157.805283 
	C791.628235,157.748947 792.929138,158.692139 792.927856,161.539459 
	C792.919006,180.906631 789.305847,199.171219 776.394531,214.705933 
	C775.556580,206.673248 775.430176,198.753571 774.910706,190.859756 
	C774.747070,188.373123 773.529724,185.955841 772.794678,183.506821 
z"/>
<path fill="#936F3E" opacity="1.000000" stroke="none" 
	d="
M772.575684,183.821686 
	C773.529724,185.955841 774.747070,188.373123 774.910706,190.859756 
	C775.430176,198.753571 775.556580,206.673248 776.142090,214.913742 
	C771.500244,220.065506 766.551147,224.886459 761.287231,229.823517 
	C760.648254,225.198090 760.416077,220.447556 759.953918,215.719513 
	C759.773560,213.874283 759.075928,212.079620 758.246582,210.099899 
	C764.916138,202.578156 769.396240,193.783722 772.575684,183.821686 
z"/>
<path fill="#C2AD71" opacity="1.000000" stroke="none" 
	d="
M657.268677,130.800400 
	C656.678833,126.275955 656.313904,121.518906 656.006714,116.758125 
	C655.656067,111.322372 655.356812,105.883301 654.936279,100.006676 
	C658.663574,96.107994 662.489807,92.648308 667.001038,89.248627 
	C668.124023,91.304642 668.764893,93.280991 668.960693,95.300499 
	C669.481079,100.665459 669.809387,106.049034 670.214111,111.425201 
	C665.982483,117.805519 661.750793,124.185829 657.268677,130.800400 
z"/>
<path fill="#BDA56B" opacity="1.000000" stroke="none" 
	d="
M670.512573,111.256653 
	C669.809387,106.049034 669.481079,100.665459 668.960693,95.300499 
	C668.764893,93.280991 668.124023,91.304642 667.327332,89.147751 
	C671.414612,86.096611 675.860657,83.206345 680.658203,80.688995 
	C681.333618,87.954636 681.657410,94.847343 681.981201,101.740059 
	C678.257812,104.856071 674.534485,107.972084 670.512573,111.256653 
z"/>
<path fill="#A3824D" opacity="1.000000" stroke="none" 
	d="
M742.953491,174.597076 
	C738.498047,174.680603 734.040039,174.696808 729.588318,174.872894 
	C726.919250,174.978439 725.844666,174.030365 725.666992,171.206497 
	C724.815186,157.667648 724.736877,157.671371 738.115967,157.747147 
	C739.437073,157.754623 740.758118,157.788666 742.542603,158.343445 
	C742.988525,164.116699 742.971008,169.356888 742.953491,174.597076 
z"/>
<path fill="#B1965D" opacity="1.000000" stroke="none" 
	d="
M693.033936,76.017464 
	C698.064209,75.028664 703.094421,74.039856 708.559326,73.564148 
	C708.989746,79.960472 708.985474,85.843704 708.981201,91.726936 
	C704.592041,92.830330 700.202759,93.933716 695.412598,94.581497 
	C695.007812,90.334854 695.232727,86.524475 694.914734,82.759964 
	C694.721802,80.475807 693.689270,78.262566 693.033936,76.017464 
z"/>
<path fill="#B89E65" opacity="1.000000" stroke="none" 
	d="
M692.643188,76.043121 
	C693.689270,78.262566 694.721802,80.475807 694.914734,82.759964 
	C695.232727,86.524475 695.007812,90.334854 695.016724,94.598717 
	C690.890137,97.230644 686.758545,99.389755 682.304077,101.644463 
	C681.657410,94.847343 681.333618,87.954636 680.999268,80.651085 
	C684.743286,78.849762 688.497864,77.459274 692.643188,76.043121 
z"/>
<path fill="#9A7845" opacity="1.000000" stroke="none" 
	d="
M743.416565,174.685669 
	C742.971008,169.356888 742.988525,164.116699 743.008423,158.403534 
	C748.033813,157.893326 753.056824,157.856110 758.542725,158.346344 
	C758.990295,164.118927 758.974854,169.364075 758.959412,174.609222 
	C753.932800,174.664246 748.906250,174.719269 743.416565,174.685669 
z"/>
<path fill="#A58650" opacity="1.000000" stroke="none" 
	d="
M721.986206,73.161499 
	C723.055603,73.086098 724.125122,73.010689 725.593506,72.881088 
	C729.099426,73.423576 732.206421,74.020264 735.658691,75.250748 
	C735.604980,81.643402 735.205994,87.402275 734.807007,93.161148 
	C734.103394,93.124641 733.399780,93.088135 732.345032,93.080673 
	C728.906738,92.505829 725.819580,91.901947 722.366638,90.692604 
	C721.995972,84.445267 721.991089,78.803383 721.986206,73.161499 
z"/>
<path fill="#936F3E" opacity="1.000000" stroke="none" 
	d="
M759.420288,174.695801 
	C758.974854,169.364075 758.990295,164.118927 759.007812,158.400085 
	C763.368225,157.895142 767.726379,157.863876 772.548706,157.877289 
	C773.003052,163.199219 772.993408,168.476471 772.977905,174.191254 
	C768.608459,174.679977 764.244812,174.731171 759.420288,174.695801 
z"/>
<path fill="#AC8F58" opacity="1.000000" stroke="none" 
	d="
M721.526489,73.106445 
	C721.991089,78.803383 721.995972,84.445267 722.001831,90.557053 
	C717.941833,91.276779 713.880859,91.526604 709.400574,91.751678 
	C708.985474,85.843704 708.989746,79.960472 708.991577,73.620171 
	C713.015015,73.125862 717.040955,73.088623 721.526489,73.106445 
z"/>
<path fill="#BFAA6F" opacity="1.000000" stroke="none" 
	d="
M441.001221,75.058403 
	C445.083099,75.058403 449.165009,75.058403 453.898163,75.058403 
	C453.898163,82.283493 453.898163,89.181053 453.982910,96.540886 
	C453.998444,110.133896 453.882019,123.264580 453.869202,136.395370 
	C453.837158,169.150330 453.852081,201.905350 453.848206,234.660339 
	C453.847961,236.641983 453.848175,238.623611 453.848175,241.258652 
	C449.604919,241.258652 445.679779,241.258652 441.373474,240.679199 
	C440.995300,185.085968 440.998260,130.072189 441.001221,75.058403 
z"/>
<path fill="#D8C887" opacity="1.000000" stroke="none" 
	d="
M488.993042,75.034180 
	C491.371277,74.980392 493.749512,74.926605 496.564636,75.429245 
	C497.002472,131.267395 497.003448,186.549133 497.004425,241.830872 
	C494.634766,241.877075 492.265137,241.923264 489.447937,241.449768 
	C488.997955,185.631439 488.995483,130.332809 488.993042,75.034180 
z"/>
<path fill="#BFA86C" opacity="1.000000" stroke="none" 
	d="
M440.556763,74.977516 
	C440.998260,130.072189 440.995300,185.085968 440.989014,240.571228 
	C439.040588,239.703827 436.955444,238.523849 435.196747,236.973526 
	C433.895447,235.826431 433.019104,234.197296 432.098083,232.138428 
	C432.494232,229.713867 432.935730,227.936798 432.963928,226.153168 
	C433.076630,219.013626 433.061066,211.872040 433.092896,204.731216 
	C433.396118,203.177628 433.962006,201.624344 433.963837,200.070419 
	C434.001923,167.692215 433.976074,135.313934 433.899719,102.471146 
	C433.836639,93.203209 433.836639,84.399811 433.836639,74.896629 
	C436.279480,74.896629 438.195892,74.896629 440.556763,74.977516 
z"/>
<path fill="#CBBB7E" opacity="1.000000" stroke="none" 
	d="
M488.644409,74.936386 
	C488.995483,130.332809 488.997955,185.631439 489.007568,241.388885 
	C486.906403,241.847687 484.798065,241.847687 482.130127,241.847687 
	C482.130127,204.311005 482.130127,167.118240 482.045166,129.463501 
	C481.960236,111.150352 481.960236,93.299149 481.960236,74.838600 
	C484.428589,74.838600 486.362183,74.838600 488.644409,74.936386 
z"/>
<path fill="#DBCD8B" opacity="1.000000" stroke="none" 
	d="
M497.420258,241.899506 
	C497.003448,186.549133 497.002472,131.267395 497.001770,75.520645 
	C498.631378,75.055618 500.260742,75.055618 502.529053,75.055618 
	C502.529053,104.297119 502.529053,133.378891 502.529053,162.460678 
	C503.097504,162.819321 503.665955,163.177979 504.234406,163.536621 
	C504.850891,162.421600 505.467377,161.306564 506.386627,160.032791 
	C507.126373,164.513718 507.462524,169.166046 508.042725,173.787720 
	C508.334930,176.115097 509.070099,178.386871 509.943604,180.914215 
	C510.217834,181.297638 510.197845,181.514069 510.082764,181.594513 
	C502.455933,186.924759 502.118256,194.612595 502.467834,202.975800 
	C502.945648,214.407318 502.469849,225.875671 502.649048,237.324402 
	C502.706421,240.988373 501.616821,242.668304 497.420258,241.899506 
z"/>
<path fill="#B89E65" opacity="1.000000" stroke="none" 
	d="
M432.995239,204.415039 
	C433.061066,211.872040 433.076630,219.013626 432.963928,226.153168 
	C432.935730,227.936798 432.494232,229.713867 431.960724,231.820862 
	C426.658478,225.757736 421.638214,219.367706 416.787476,212.357132 
	C417.304260,207.691116 417.601868,203.640594 418.012390,199.601562 
	C418.440887,195.386185 418.978088,191.181870 419.467773,186.972733 
	C423.944366,192.681427 428.420959,198.390137 432.995239,204.415039 
z"/>
<path fill="#AC8F58" opacity="1.000000" stroke="none" 
	d="
M392.372559,151.977417 
	C396.880127,157.705048 401.387726,163.432678 405.825500,169.876709 
	C405.143066,179.134430 404.530426,187.675751 403.917816,196.217056 
	C399.641754,190.797516 395.365692,185.377991 391.008301,179.154999 
	C391.408813,169.560181 391.890686,160.768799 392.372559,151.977417 
z"/>
<path fill="#B2975F" opacity="1.000000" stroke="none" 
	d="
M404.033447,196.527496 
	C404.530426,187.675751 405.143066,179.134430 405.925446,170.195648 
	C410.467316,175.340485 414.839386,180.882797 419.339600,186.698929 
	C418.978088,191.181870 418.440887,195.386185 418.012390,199.601562 
	C417.601868,203.640594 417.304260,207.691116 416.617920,212.048187 
	C412.235626,207.185852 408.192383,202.011902 404.033447,196.527496 
z"/>
<path fill="#A0804C" opacity="1.000000" stroke="none" 
	d="
M369.979492,123.008743 
	C373.793701,127.821846 377.607910,132.634949 381.228210,137.929489 
	C380.689178,140.275116 380.152771,142.127151 380.033356,144.005707 
	C379.609344,150.674271 379.327545,157.351883 378.991882,164.026077 
	C375.025848,158.993805 371.059845,153.961548 367.079407,148.186249 
	C367.376709,140.999115 367.568573,134.545486 368.079285,128.117203 
	C368.217651,126.375053 369.319733,124.709473 369.979492,123.008743 
z"/>
<path fill="#A68852" opacity="1.000000" stroke="none" 
	d="
M379.114227,164.340393 
	C379.327545,157.351883 379.609344,150.674271 380.033356,144.005707 
	C380.152771,142.127151 380.689178,140.275116 381.357300,138.225494 
	C385.172180,142.503998 388.664062,146.967941 392.264282,151.704651 
	C391.890686,160.768799 391.408813,169.560181 390.896271,178.844513 
	C386.989258,174.443222 383.112915,169.548965 379.114227,164.340393 
z"/>
<path fill="#9C7A47" opacity="1.000000" stroke="none" 
	d="
M369.863159,122.691376 
	C369.319733,124.709473 368.217651,126.375053 368.079285,128.117203 
	C367.568573,134.545486 367.376709,140.999115 366.965515,147.875153 
	C363.302155,143.803940 359.738220,139.300781 356.139954,134.066895 
	C356.403839,126.881203 356.572540,120.415901 357.086639,113.978188 
	C357.224152,112.256340 358.416534,110.618721 359.124634,108.942429 
	C362.665375,113.419617 366.206116,117.896812 369.863159,122.691376 
z"/>
<path fill="#967342" opacity="1.000000" stroke="none" 
	d="
M358.999329,108.624557 
	C358.416534,110.618721 357.224152,112.256340 357.086639,113.978188 
	C356.572540,120.415901 356.403839,126.881203 356.011597,133.758713 
	C355.471558,133.813507 355.025543,133.445724 354.330322,132.927917 
	C351.428680,129.141281 348.776245,125.504700 346.061462,121.117050 
	C346.333160,113.910294 346.541046,107.443932 347.084869,101.005943 
	C347.230804,99.278221 348.400055,97.636940 349.099518,95.955978 
	C352.357666,100.072876 355.615845,104.189781 358.999329,108.624557 
z"/>
<path fill="#252525" opacity="1.000000" stroke="none" 
	d="
M513.551331,177.932098 
	C513.683350,177.651459 514.092346,177.292374 514.807983,176.824585 
	C514.685791,177.095123 514.257080,177.474396 513.551331,177.932098 
z"/>
<path fill="#936F3E" opacity="1.000000" stroke="none" 
	d="
M348.972809,95.639236 
	C348.400055,97.636940 347.230804,99.278221 347.084869,101.005943 
	C346.541046,107.443932 346.333160,113.910294 345.950256,120.804779 
	C343.435486,118.246704 340.969666,115.249855 338.222229,112.053879 
	C338.076050,102.332268 338.211487,92.809776 338.711243,83.129204 
	C342.332397,87.088249 345.589264,91.205368 348.972809,95.639236 
z"/>
<path fill="#9E7D49" opacity="1.000000" stroke="none" 
	d="
M735.096680,93.379791 
	C735.205994,87.402275 735.604980,81.643402 736.005737,75.411552 
	C741.127075,76.542862 746.246704,78.147163 751.678467,80.398445 
	C751.992493,85.369781 752.207825,89.709763 751.892883,94.010925 
	C751.763489,95.778435 750.491516,97.462303 749.739319,99.184219 
	C744.954956,97.322296 740.170654,95.460365 735.096680,93.379791 
z"/>
<path fill="#967342" opacity="1.000000" stroke="none" 
	d="
M749.968201,99.437454 
	C750.491516,97.462303 751.763489,95.778435 751.892883,94.010925 
	C752.207825,89.709763 751.992493,85.369781 751.986572,80.587814 
	C758.402405,83.727455 764.822449,87.324715 772.074341,91.388069 
	C767.719299,96.384575 764.386841,100.430206 760.743164,104.172913 
	C760.124634,104.808220 757.964478,104.547234 756.874512,103.994522 
	C754.525330,102.803276 752.408813,101.153084 749.968201,99.437454 
z"/>
<path fill="#DDD08E" opacity="1.000000" stroke="none" 
	d="
M597.884094,86.115997 
	C597.079041,82.845978 596.539001,79.406212 595.998047,75.510307 
	C599.642273,75.054169 603.287476,75.054169 608.001648,75.054169 
	C604.408386,79.026535 601.278809,82.486397 597.884094,86.115997 
z"/>
<path fill="#916D3C" opacity="1.000000" stroke="none" 
	d="
M246.388687,191.745667 
	C247.437744,195.302704 248.486786,198.859726 249.772797,202.711624 
	C247.919510,207.290344 245.829239,211.574219 243.288879,215.696686 
	C242.135666,213.141891 241.432541,210.748520 240.800293,208.030045 
	C242.710358,202.385193 244.549530,197.065430 246.388687,191.745667 
z"/>
<path fill="#D4C98A" opacity="1.000000" stroke="none" 
	d="
M175.358398,248.941162 
	C174.773804,246.941589 174.557404,244.906174 174.388184,242.219238 
	C179.290237,240.054047 184.145126,238.540359 189.001953,237.450562 
	C188.992523,239.846802 188.981171,241.819138 188.969803,243.791504 
	C184.555405,245.496109 180.140991,247.200699 175.358398,248.941162 
z"/>
<path fill="#C8B477" opacity="1.000000" stroke="none" 
	d="
M189.364609,243.790848 
	C188.981171,241.819138 188.992523,239.846802 189.292084,237.186829 
	C193.713470,235.726303 197.846664,234.953369 201.987213,234.596359 
	C201.988190,236.952896 201.981812,238.893509 201.975433,240.834137 
	C197.903442,241.819489 193.831421,242.804840 189.364609,243.790848 
z"/>
<path fill="#9A7845" opacity="1.000000" stroke="none" 
	d="
M240.729401,208.355133 
	C241.432541,210.748520 242.135666,213.141891 243.020416,215.911224 
	C240.388824,219.553589 237.575607,222.820038 234.419128,225.823288 
	C233.290009,223.664093 232.504135,221.768082 231.880737,219.578766 
	C233.453827,217.558105 234.864456,215.830765 236.536591,213.914566 
	C238.108536,211.935501 239.418961,210.145309 240.729401,208.355133 
z"/>
<path fill="#B89E65" opacity="1.000000" stroke="none" 
	d="
M202.369049,240.862350 
	C201.981812,238.893509 201.988190,236.952896 202.340195,234.437195 
	C206.447540,232.857483 210.209244,231.852875 213.984589,231.249115 
	C214.347519,233.468872 214.696823,235.287766 215.046143,237.106659 
	C210.951660,238.367966 206.857178,239.629272 202.369049,240.862350 
z"/>
<path fill="#AE925A" opacity="1.000000" stroke="none" 
	d="
M215.420258,237.095001 
	C214.696823,235.287766 214.347519,233.468872 214.224533,231.005997 
	C217.589203,228.884964 220.727570,227.407913 224.100021,226.202148 
	C224.894440,228.326981 225.454758,230.180496 226.015076,232.034027 
	C222.608185,233.717133 219.201279,235.400253 215.420258,237.095001 
z"/>
<path fill="#A3824D" opacity="1.000000" stroke="none" 
	d="
M226.356323,231.972092 
	C225.454758,230.180496 224.894440,228.326981 224.300568,225.933533 
	C226.750778,223.553101 229.234512,221.712601 231.718262,219.872086 
	C232.504135,221.768082 233.290009,223.664093 234.109589,225.976227 
	C231.661377,228.231628 229.179474,230.070892 226.356323,231.972092 
z"/>
<path fill="#9A7A48" opacity="1.000000" stroke="none" 
	d="
M80.351929,128.140900 
	C79.316132,125.293762 78.280342,122.446617 77.071625,119.223663 
	C76.980095,118.356712 76.957504,117.817810 77.157982,117.381378 
	C83.557465,103.450150 84.852745,89.596573 75.403648,75.072624 
	C81.413414,75.072624 86.266113,75.072624 91.572701,75.564690 
	C92.028427,77.983788 92.030266,79.910812 91.627365,81.913651 
	C89.864029,82.156662 88.505440,82.323868 86.837494,82.529137 
	C90.979881,94.579300 89.486649,105.699104 84.789696,116.623787 
	C83.165863,120.400673 81.823082,124.298386 80.351929,128.140900 
z"/>
<path fill="#CDBD7F" opacity="1.000000" stroke="none" 
	d="
M124.017021,72.185364 
	C127.404503,71.131660 130.791977,70.077965 134.649780,69.369034 
	C135.465790,71.689125 135.811478,73.664444 135.877380,75.803978 
	C133.731705,76.646675 131.865814,77.325165 129.620087,77.976112 
	C127.497513,78.249695 125.754807,78.550835 124.009857,78.434990 
	C124.010750,76.073799 124.013885,74.129578 124.017021,72.185364 
z"/>
<path fill="#B89E65" opacity="1.000000" stroke="none" 
	d="
M102.017387,75.167900 
	C105.720383,74.772118 109.423386,74.376328 113.563293,74.468964 
	C114.030708,76.818062 114.061211,78.678734 113.727272,80.687286 
	C109.581230,81.082886 105.799637,81.330605 102.019691,81.178772 
	C102.020027,78.908791 102.018707,77.038345 102.017387,75.167900 
z"/>
<path fill="#DDD08E" opacity="1.000000" stroke="none" 
	d="
M136.157166,75.639771 
	C135.811478,73.664444 135.465790,71.689125 135.035309,69.296478 
	C137.996277,67.573074 141.042038,66.266991 144.443771,64.936951 
	C145.430984,66.705734 146.062210,68.498482 146.602203,70.897537 
	C143.059708,72.882484 139.608429,74.261131 136.157166,75.639771 
z"/>
<path fill="#C5B174" opacity="1.000000" stroke="none" 
	d="
M114.091721,80.539413 
	C114.061211,78.678734 114.030708,76.818062 114.004807,74.493576 
	C117.076096,73.392052 120.142769,72.754333 123.613235,72.150986 
	C124.013885,74.129578 124.010750,76.073799 123.622208,78.581467 
	C120.188438,79.609749 117.140083,80.074585 114.091721,80.539413 
z"/>
<path fill="#AE925A" opacity="1.000000" stroke="none" 
	d="
M101.567818,75.097031 
	C102.018707,77.038345 102.020027,78.908791 101.575043,81.280266 
	C98.096535,81.800148 95.064323,81.819000 92.032104,81.837845 
	C92.030266,79.910812 92.028427,77.983788 92.036018,75.645035 
	C95.069717,75.164268 98.093979,75.095215 101.567818,75.097031 
z"/>
<path fill="#161616" opacity="1.000000" stroke="none" 
	d="
M91.627365,81.913651 
	C95.064323,81.819000 98.096535,81.800148 101.573395,81.679810 
	C105.799637,81.330605 109.581230,81.082886 113.727272,80.687294 
	C117.140083,80.074585 120.188438,79.609749 123.624451,78.998444 
	C125.754807,78.550835 127.497513,78.249695 129.688583,78.312576 
	C130.764023,80.138618 131.391083,81.600647 131.868668,83.233765 
	C131.455017,83.555641 131.209030,83.731796 130.570129,83.892914 
	C124.351471,84.737007 118.543907,85.621506 112.454346,86.382988 
	C110.599007,86.961609 109.025658,87.663254 107.452301,88.364891 
	C107.785103,89.010086 108.117897,89.655273 108.450691,90.300468 
	C109.975533,89.529518 111.500381,88.758568 113.392845,88.126068 
	C119.526558,87.446556 125.292656,86.628601 131.433624,85.801559 
	C132.538483,85.635712 133.268478,85.478951 134.003967,85.697784 
	C134.395859,87.504868 134.585083,89.027458 135.198242,90.354103 
	C144.115814,109.648232 152.542999,129.195328 162.197632,148.115402 
	C172.828812,168.949188 184.613968,189.193588 195.865646,209.711624 
	C198.633026,214.758133 201.280975,219.870132 203.696304,225.045074 
	C203.570663,225.965408 203.610428,227.464005 203.912827,227.519028 
	C208.258240,228.309601 211.609818,226.642639 214.279022,222.887115 
	C215.000916,222.515457 215.480423,222.264282 216.100952,222.223572 
	C217.815018,221.697098 219.388077,220.960190 221.319244,220.156265 
	C225.025864,217.353699 228.374374,214.618149 232.077866,211.961029 
	C233.713577,212.727478 234.994308,213.415451 236.275055,214.103424 
	C234.864456,215.830765 233.453827,217.558105 231.880737,219.578766 
	C229.234512,221.712601 226.750778,223.553101 224.066467,225.662231 
	C220.727570,227.407913 217.589203,228.884964 214.210907,230.605133 
	C210.209244,231.852875 206.447540,232.857483 202.332855,234.021271 
	C197.846664,234.953369 193.713470,235.726303 189.290131,236.762955 
	C184.145126,238.540359 179.290237,240.054047 174.229767,241.876007 
	C169.038742,245.274155 164.053314,248.364029 158.929398,251.539749 
	C155.530899,249.162689 151.674774,246.465561 147.479431,243.634552 
	C143.387863,241.893341 139.635529,240.286026 135.504593,238.583984 
	C131.397064,237.514816 127.668159,236.540390 123.530243,235.514252 
	C120.001747,234.740158 116.882278,234.017776 113.392227,233.275085 
	C110.421677,232.434464 107.821716,231.614136 104.864609,230.726990 
	C102.558647,229.708542 100.609825,228.756882 98.131660,227.589294 
	C97.361000,227.196228 97.100983,227.053040 96.822281,226.943771 
	C95.433495,225.967712 94.044701,224.991653 92.355515,223.892212 
	C89.211327,220.972855 86.367523,218.176910 83.247055,215.195648 
	C79.833076,208.438812 76.695770,201.867310 73.348808,194.955658 
	C73.056877,182.358261 72.974594,170.101044 72.864861,157.413528 
	C75.297272,147.625473 77.757133,138.267700 80.284462,128.525421 
	C81.823082,124.298386 83.165863,120.400673 84.789696,116.623787 
	C89.486649,105.699104 90.979881,94.579300 86.837494,82.529137 
	C88.505440,82.323868 89.864029,82.156662 91.627365,81.913651 
M88.957771,209.742523 
	C86.942810,206.817596 84.927849,203.892685 82.912888,200.967758 
	C82.355141,201.382034 81.797394,201.796326 81.239639,202.210602 
	C83.713928,205.655075 86.188210,209.099533 89.004311,213.092087 
	C93.518364,218.462845 98.554588,223.016403 106.121017,224.499451 
	C106.852600,224.739182 107.584175,224.978928 108.315758,225.218658 
	C108.409889,224.794647 108.504021,224.370636 108.598160,223.946625 
	C107.696228,223.946625 106.794304,223.946625 105.777328,223.274582 
	C100.251640,218.957001 94.725952,214.639404 88.957771,209.742523 
M80.245071,161.244919 
	C82.826981,150.829056 85.408890,140.413193 88.337700,129.345551 
	C89.144501,126.857643 89.653038,124.220352 90.811073,121.908371 
	C95.207848,113.130310 97.533699,103.979866 97.249130,94.088043 
	C97.189735,92.023445 98.899765,89.907928 99.627129,88.206985 
	C98.806953,88.206985 96.607368,88.206985 95.094444,88.206985 
	C94.562080,94.950760 94.780754,101.344154 93.400200,107.371239 
	C91.637703,115.065773 88.583923,122.464516 85.694008,130.615326 
	C83.232750,141.024948 80.771492,151.434570 78.040993,162.541504 
	C76.382507,173.869492 75.906418,185.132507 80.008469,196.860001 
	C80.423180,197.207932 80.837898,197.555862 81.252602,197.903793 
	C81.356880,196.954941 81.461159,196.006073 81.517563,194.282944 
	C78.473289,183.641296 79.468895,172.812622 80.245071,161.244919 
M185.867874,232.019897 
	C190.328613,230.956482 194.789352,229.893066 199.250092,228.829636 
	C199.053909,228.113327 198.857742,227.397018 198.661560,226.680725 
	C194.101166,227.822205 189.540771,228.963699 184.215134,230.109299 
	C175.794250,233.594635 167.373352,237.079956 158.128632,240.906265 
	C157.900482,240.752304 156.648453,239.544830 155.152939,238.959900 
	C148.141571,236.217697 141.063217,233.646744 133.835037,230.418137 
	C130.534790,229.295349 127.234550,228.172546 123.934303,227.049759 
	C123.703773,227.809341 123.473244,228.568909 123.242722,229.328491 
	C126.542892,230.836166 129.909805,232.126770 134.189194,231.707169 
	C142.733994,235.789200 151.278809,239.871231 158.971603,243.546234 
	C167.679977,239.734467 176.368790,235.931259 185.867874,232.019897 
M116.194443,228.276077 
	C114.600250,226.856339 113.006058,225.436600 111.411865,224.016876 
	C110.990341,224.728668 110.568817,225.440475 110.147293,226.152267 
	C111.988121,226.890961 113.828949,227.629669 116.194443,228.276077 
M118.527367,227.390732 
	C118.989197,227.980560 119.451027,228.570374 119.912865,229.160202 
	C120.201241,228.665741 120.489616,228.171295 120.777992,227.676834 
	C120.075211,227.400894 119.372437,227.124969 118.527367,227.390732 
z"/>
<path fill="#1B1A18" opacity="1.000000" stroke="none" 
	d="
M96.937958,227.173508 
	C97.100983,227.053040 97.361000,227.196228 97.771118,227.517075 
	C97.644485,227.574951 97.349060,227.489105 96.937958,227.173508 
z"/>
<path fill="#1F1E1C" opacity="1.000000" stroke="none" 
	d="
M236.536575,213.914551 
	C234.994308,213.415451 233.713577,212.727478 232.217224,211.632294 
	C233.544037,208.494156 235.086456,205.763229 236.814941,202.770538 
	C237.919357,200.030518 239.101395,197.615555 239.714111,195.063904 
	C244.318253,175.889893 241.257706,157.287949 235.201508,138.552612 
	C234.386093,137.611145 233.672104,137.043854 232.936737,136.317871 
	C232.900620,135.944153 232.919769,135.732193 233.302200,135.326508 
	C233.503189,134.182693 233.521576,133.186691 233.224426,132.295975 
	C228.680069,118.674057 222.255539,105.481194 224.101120,90.445305 
	C224.526886,86.976585 222.157974,87.241997 219.401123,87.631157 
	C212.973724,87.010765 206.987778,86.503342 200.607483,85.906631 
	C197.793076,85.263817 195.373032,84.710297 192.964020,83.727142 
	C192.983337,81.865326 192.991623,80.433136 192.999924,79.000946 
	C193.442429,78.984535 193.884918,78.968124 194.659424,78.921371 
	C198.000870,79.445930 201.010300,80.000832 204.457672,80.574478 
	C208.598083,80.948318 212.300568,81.303421 216.452271,81.617523 
	C219.637695,81.685738 222.373886,81.794960 225.537903,81.865944 
	C227.751694,81.986526 229.537659,82.145332 231.979767,82.362488 
	C224.836899,99.319824 233.038391,113.863152 238.605286,129.155365 
	C241.123245,138.405334 243.418961,147.343262 245.856903,156.640289 
	C246.179855,168.292542 246.360550,179.585693 246.464966,191.312256 
	C244.549530,197.065430 242.710358,202.385193 240.800293,208.030045 
	C239.418961,210.145309 238.108536,211.935501 236.536575,213.914551 
z"/>
<path fill="#1B1A18" opacity="1.000000" stroke="none" 
	d="
M192.679962,78.812912 
	C192.991623,80.433136 192.983337,81.865326 192.565613,83.642365 
	C189.116196,83.280922 186.076218,82.574623 182.734116,81.636139 
	C176.247971,78.641068 169.765167,76.379608 163.986603,72.936302 
	C160.230896,70.698380 158.055283,71.210144 154.445892,73.153641 
	C147.271545,77.016716 139.527069,79.820938 132.018158,83.062675 
	C131.391083,81.600647 130.764023,80.138618 130.068451,78.340126 
	C131.865814,77.325165 133.731705,76.646675 135.877380,75.803986 
	C139.608429,74.261131 143.059708,72.882484 146.751526,71.232803 
	C151.075668,68.506844 155.159256,66.051933 159.384384,63.511932 
	C163.148819,65.896538 167.154388,68.433884 171.501862,71.024033 
	C175.643280,72.710426 179.442795,74.344017 183.620728,75.981003 
	C186.786102,76.864563 189.573059,77.744720 192.679962,78.812912 
z"/>
<path fill="#191919" opacity="1.000000" stroke="none" 
	d="
M232.972824,135.523300 
	C232.919769,135.732193 232.900620,135.944153 232.917191,136.734161 
	C233.016602,137.855606 233.114197,138.402039 233.243073,139.326874 
	C239.113968,160.622971 242.868027,181.586670 234.468445,203.081955 
	C229.616394,208.551376 224.961823,213.752838 220.001251,218.993652 
	C218.450150,220.026382 217.205032,221.019745 215.959930,222.013107 
	C215.480423,222.264282 215.000916,222.515457 214.071945,222.722443 
	C210.409607,223.436188 207.196716,224.194107 203.983841,224.952026 
	C201.280975,219.870132 198.633026,214.758133 195.865646,209.711624 
	C184.613968,189.193588 172.828812,168.949188 162.197632,148.115402 
	C152.542999,129.195328 144.115814,109.648232 135.198242,90.354103 
	C134.585083,89.027458 134.395859,87.504868 134.345673,85.503990 
	C141.973969,81.613220 149.357498,78.472870 156.503723,74.862770 
	C158.714478,73.745956 160.018311,73.810165 162.204498,74.851425 
	C168.978516,78.077812 175.974075,80.839050 183.184998,83.932938 
	C189.267303,85.321198 195.048264,86.557350 201.179962,87.929062 
	C207.652328,88.595520 213.773926,89.126419 220.218063,89.826088 
	C220.811722,91.005638 221.361618,92.030251 221.312241,93.025131 
	C220.545670,108.478264 226.826691,121.979446 232.972824,135.523300 
z"/>
<path fill="#D4C98A" opacity="1.000000" stroke="none" 
	d="
M134.008789,231.014633 
	C141.063217,233.646744 148.141571,236.217697 155.152939,238.959900 
	C156.648453,239.544830 157.900482,240.752304 158.128632,240.906265 
	C167.373352,237.079956 175.794250,233.594635 184.613098,230.444275 
	C185.026566,231.228867 185.042084,231.678467 185.057602,232.128052 
	C176.368790,235.931259 167.679977,239.734467 158.971603,243.546234 
	C151.278809,239.871231 142.733994,235.789200 134.094818,231.352814 
	C134.000458,230.998459 134.008789,231.014633 134.008789,231.014633 
z"/>
<path fill="#D4C98A" opacity="1.000000" stroke="none" 
	d="
M182.883652,83.780838 
	C175.974075,80.839050 168.978516,78.077812 162.204498,74.851425 
	C160.018311,73.810165 158.714478,73.745956 156.503723,74.862770 
	C149.357498,78.472870 141.973969,81.613220 134.340164,85.128387 
	C133.268478,85.478951 132.538483,85.635712 131.415344,85.332184 
	C131.008545,84.559036 130.994873,84.246178 130.981216,83.933327 
	C131.209030,83.731796 131.455017,83.555641 131.868668,83.233765 
	C139.527069,79.820938 147.271545,77.016716 154.445892,73.153641 
	C158.055283,71.210144 160.230896,70.698380 163.986603,72.936302 
	C169.765167,76.379608 176.247971,78.641068 182.696030,82.114265 
	C182.934601,83.143333 182.909119,83.462090 182.883652,83.780838 
z"/>
<path fill="#967342" opacity="1.000000" stroke="none" 
	d="
M86.086693,129.990753 
	C88.583923,122.464516 91.637703,115.065773 93.400200,107.371239 
	C94.780754,101.344154 94.562080,94.950760 95.094444,88.206985 
	C96.607368,88.206985 98.806953,88.206985 99.627129,88.206985 
	C98.899765,89.907928 97.189735,92.023445 97.249130,94.088043 
	C97.533699,103.979866 95.207848,113.130310 90.811073,121.908371 
	C89.653038,124.220352 89.144501,126.857643 87.846886,129.673706 
	C86.932945,129.998138 86.509819,129.994446 86.086693,129.990753 
z"/>
<path fill="#7E5C32" opacity="1.000000" stroke="none" 
	d="
M79.888283,196.150482 
	C75.906418,185.132507 76.382507,173.869492 78.604507,162.238129 
	C79.453087,161.957977 79.738136,161.981171 80.023193,162.004379 
	C79.468895,172.812622 78.473289,183.641296 81.296982,194.743958 
	C80.680359,195.520157 80.284325,195.835312 79.888283,196.150482 
z"/>
<path fill="#8B6637" opacity="1.000000" stroke="none" 
	d="
M80.134132,161.624649 
	C79.738136,161.981171 79.453087,161.957977 78.739136,161.889481 
	C80.771492,151.434570 83.232750,141.024948 85.890350,130.303040 
	C86.509819,129.994446 86.932945,129.998138 87.673431,129.999588 
	C85.408890,140.413193 82.826981,150.829056 80.134132,161.624649 
z"/>
<path fill="#9A7A48" opacity="1.000000" stroke="none" 
	d="
M105.930817,223.907898 
	C98.554588,223.016403 93.518364,218.462845 88.972946,212.263062 
	C89.027809,211.063278 89.114037,210.692551 89.200256,210.321808 
	C94.725952,214.639404 100.251640,218.957001 105.878296,223.634003 
	C105.979263,223.993439 105.930817,223.907898 105.930817,223.907898 
z"/>
<path fill="#8F7143" opacity="1.000000" stroke="none" 
	d="
M220.307236,218.954300 
	C224.961823,213.752838 229.616394,208.551376 234.958740,203.148407 
	C235.973969,202.975357 236.301422,203.003830 236.628891,203.032303 
	C235.086456,205.763229 233.544037,208.494156 231.862244,211.553833 
	C228.374374,214.618149 225.025864,217.353699 221.167725,219.832779 
	C220.541138,219.368973 220.424194,219.161636 220.307236,218.954300 
z"/>
<path fill="#BDA56B" opacity="1.000000" stroke="none" 
	d="
M130.570129,83.892914 
	C130.994873,84.246178 131.008545,84.559036 131.040466,85.341278 
	C125.292656,86.628601 119.526558,87.446556 113.319855,87.755814 
	C112.831604,87.000084 112.783966,86.753044 112.736336,86.506004 
	C118.543907,85.621506 124.351471,84.737007 130.570129,83.892914 
z"/>
<path fill="#C5B174" opacity="1.000000" stroke="none" 
	d="
M185.462738,232.073975 
	C185.042084,231.678467 185.026566,231.228867 184.995712,230.442230 
	C189.540771,228.963699 194.101166,227.822205 198.661560,226.680725 
	C198.857742,227.397018 199.053909,228.113327 199.250092,228.829636 
	C194.789352,229.893066 190.328613,230.956482 185.462738,232.073975 
z"/>
<path fill="#1F1E1C" opacity="1.000000" stroke="none" 
	d="
M203.696304,225.045074 
	C207.196716,224.194107 210.409607,223.436188 213.829559,222.842941 
	C211.609818,226.642639 208.258240,228.309601 203.912827,227.519028 
	C203.610428,227.464005 203.570663,225.965408 203.696304,225.045074 
z"/>
<path fill="#1B1A18" opacity="1.000000" stroke="none" 
	d="
M134.008667,231.003998 
	C129.909805,232.126770 126.542892,230.836166 123.242722,229.328491 
	C123.473244,228.568909 123.703773,227.809341 123.934303,227.049759 
	C127.234550,228.172546 130.534790,229.295349 133.921906,230.716385 
	C134.008789,231.014633 134.000458,230.998459 134.008667,231.003998 
z"/>
<path fill="#8B6637" opacity="1.000000" stroke="none" 
	d="
M89.079018,210.032166 
	C89.114037,210.692551 89.027809,211.063278 88.802032,211.989014 
	C86.188210,209.099533 83.713928,205.655075 81.239639,202.210602 
	C81.797394,201.796326 82.355141,201.382034 82.912888,200.967758 
	C84.927849,203.892685 86.942810,206.817596 89.079018,210.032166 
z"/>
<path fill="#1B1A18" opacity="1.000000" stroke="none" 
	d="
M115.932114,228.322220 
	C113.828949,227.629669 111.988121,226.890961 110.147293,226.152267 
	C110.568817,225.440475 110.990341,224.728668 111.411865,224.016876 
	C113.006058,225.436600 114.600250,226.856339 115.932114,228.322220 
z"/>
<path fill="#1B1A18" opacity="1.000000" stroke="none" 
	d="
M112.454346,86.382988 
	C112.783966,86.753044 112.831604,87.000084 112.952225,87.617371 
	C111.500381,88.758568 109.975533,89.529518 108.450691,90.300468 
	C108.117897,89.655273 107.785103,89.010086 107.452301,88.364891 
	C109.025658,87.663254 110.599007,86.961609 112.454346,86.382988 
z"/>
<path fill="#1F1E1C" opacity="1.000000" stroke="none" 
	d="
M220.001251,218.993652 
	C220.424194,219.161636 220.541138,219.368973 220.809601,219.899796 
	C219.388077,220.960190 217.815018,221.697098 216.100937,222.223541 
	C217.205032,221.019745 218.450150,220.026382 220.001251,218.993652 
z"/>
<path fill="#1B1A18" opacity="1.000000" stroke="none" 
	d="
M118.598511,227.119873 
	C119.372437,227.124969 120.075211,227.400894 120.777992,227.676834 
	C120.489616,228.171295 120.201241,228.665741 119.912865,229.160202 
	C119.451027,228.570374 118.989197,227.980560 118.598511,227.119873 
z"/>
<path fill="#1B1A18" opacity="1.000000" stroke="none" 
	d="
M105.935822,223.970032 
	C106.794304,223.946625 107.696228,223.946625 108.598160,223.946625 
	C108.504021,224.370636 108.409889,224.794647 108.315758,225.218658 
	C107.584175,224.978928 106.852600,224.739182 106.025917,224.203674 
	C105.930817,223.907898 105.979263,223.993439 105.935822,223.970032 
z"/>
<path fill="#8B6637" opacity="1.000000" stroke="none" 
	d="
M79.948380,196.505249 
	C80.284325,195.835312 80.680359,195.520157 81.320923,195.131104 
	C81.461159,196.006073 81.356880,196.954941 81.252609,197.903778 
	C80.837898,197.555862 80.423180,197.207932 79.948380,196.505249 
z"/>
<path fill="#7E5C32" opacity="1.000000" stroke="none" 
	d="
M236.814941,202.770538 
	C236.301422,203.003830 235.973969,202.975357 235.156204,202.880447 
	C242.868027,181.586670 239.113968,160.622971 233.591217,139.332245 
	C234.373032,138.948410 234.837982,138.937592 235.302948,138.926758 
	C241.257706,157.287949 244.318253,175.889893 239.714111,195.063904 
	C239.101395,197.615555 237.919357,200.030518 236.814941,202.770538 
z"/>
<path fill="#8F7143" opacity="1.000000" stroke="none" 
	d="
M233.302200,135.326508 
	C226.826691,121.979446 220.545670,108.478264 221.312241,93.025131 
	C221.361618,92.030251 220.811722,91.005638 220.208374,89.586288 
	C219.864975,88.699860 219.853775,88.221992 219.842590,87.744133 
	C222.157974,87.241997 224.526886,86.976585 224.101120,90.445305 
	C222.255539,105.481194 228.680069,118.674057 233.224426,132.295975 
	C233.521576,133.186691 233.503189,134.182693 233.302200,135.326508 
z"/>
<path fill="#B1965D" opacity="1.000000" stroke="none" 
	d="
M219.401123,87.631157 
	C219.853775,88.221992 219.864975,88.699860 219.885849,89.417519 
	C213.773926,89.126419 207.652328,88.595520 201.225952,87.479568 
	C200.948090,86.594986 200.974976,86.295448 201.001846,85.995918 
	C206.987778,86.503342 212.973724,87.010765 219.401123,87.631157 
z"/>
<path fill="#C5B174" opacity="1.000000" stroke="none" 
	d="
M200.607483,85.906631 
	C200.974976,86.295448 200.948090,86.594986 200.875214,87.344017 
	C195.048264,86.557350 189.267303,85.321198 183.184998,83.932938 
	C182.909119,83.462090 182.934601,83.143333 182.998154,82.346451 
	C186.076218,82.574623 189.116196,83.280922 192.554581,84.071999 
	C195.373032,84.710297 197.793076,85.263817 200.607483,85.906631 
z"/>
<path fill="#8F7143" opacity="1.000000" stroke="none" 
	d="
M235.201508,138.552612 
	C234.837982,138.937592 234.373032,138.948410 233.559921,138.953857 
	C233.114197,138.402039 233.016602,137.855606 232.938568,136.892853 
	C233.672104,137.043854 234.386093,137.611145 235.201508,138.552612 
z"/>
</svg>